<?xml version="1.0" standalone="no"?>
<!DOCTYPE svg PUBLIC "-//W3C//DTD SVG 20010904//EN"
 "http://www.w3.org/TR/2001/REC-SVG-20010904/DTD/svg10.dtd">
<svg version="1.0" xmlns="http://www.w3.org/2000/svg"
 width="50.000000pt" height="50.000000pt" viewBox="0 0 50.000000 50.000000"
 preserveAspectRatio="xMidYMid meet">
<metadata>
Created by potrace 1.15, written by Peter Selinger 2001-2017
</metadata>
<g transform="translate(0.000000,50.000000) scale(0.100000,-0.100000)"
fill="#000000" stroke="none">
<path d="M160 130 c0 -5 -18 -10 -39 -10 -36 0 -40 -3 -44 -27 -4 -26 -4 -26
-6 5 -1 27 -5 32 -26 32 -22 0 -25 -4 -25 -35 0 -34 1 -35 40 -35 35 0 40 3
41 23 l0 22 9 -22 c9 -22 14 -22 122 -20 l113 2 3 33 c2 18 -1 32 -7 32 -6 0
-11 -9 -11 -20 0 -23 -15 -27 -24 -5 -3 9 -18 15 -40 15 -19 0 -37 6 -40 13
-5 10 -7 10 -12 0 -7 -15 -34 -17 -34 -3 0 6 -4 10 -10 10 -5 0 -10 -4 -10
-10z"/>
</g>
</svg>
